<?xml version="1.0" encoding="UTF-8" standalone="no"?><svg xmlns="http://www.w3.org/2000/svg" xmlns:xlink="http://www.w3.org/1999/xlink" contentStyleType="text/css" height="170px" preserveAspectRatio="none" style="width:495px;height:170px;background:#FFFFFF;" version="1.1" viewBox="0 0 495 170" width="495px" zoomAndPan="magnify"><defs/><g><!--MD5=[6178f88bbe623bb523cef0440b7d7572]
class Entity01--><g id="elem_Entity01"><rect fill="#F1F1F1" height="48" id="Entity01" rx="2.5" ry="2.5" style="stroke:#181818;stroke-width:0.5;" width="94" x="7" y="7"/><ellipse cx="22" cy="23" fill="#ADD1B2" rx="11" ry="11" style="stroke:#181818;stroke-width:1.0;"/><path d="M24.3438,18.6719 C23.4063,18.2344 22.8125,18.0938 21.9375,18.0938 C19.3125,18.0938 17.3125,20.1719 17.3125,22.8906 L17.3125,24.0156 C17.3125,26.5938 19.4219,28.4844 22.3125,28.4844 C23.5313,28.4844 24.6875,28.1875 25.4375,27.6406 C26.0156,27.2344 26.3438,26.7813 26.3438,26.3906 C26.3438,25.9375 25.9531,25.5469 25.4844,25.5469 C25.2656,25.5469 25.0625,25.625 24.875,25.8125 C24.4219,26.2969 24.4219,26.2969 24.2344,26.3906 C23.8125,26.6563 23.125,26.7813 22.3594,26.7813 C20.3125,26.7813 19.0156,25.6875 19.0156,23.9844 L19.0156,22.8906 C19.0156,21.1094 20.2656,19.7969 22,19.7969 C22.5781,19.7969 23.1875,19.9531 23.6563,20.2031 C24.1406,20.4844 24.3125,20.7031 24.4063,21.1094 C24.4688,21.5156 24.5,21.6406 24.6406,21.7656 C24.7813,21.9063 25.0156,22.0156 25.2344,22.0156 C25.5,22.0156 25.7656,21.875 25.9375,21.6563 C26.0469,21.5 26.0781,21.3125 26.0781,20.8906 L26.0781,19.4688 C26.0781,19.0313 26.0625,18.9063 25.9688,18.75 C25.8125,18.4844 25.5313,18.3438 25.2344,18.3438 C24.9375,18.3438 24.7344,18.4375 24.5156,18.75 L24.3438,18.6719 Z " fill="#000000"/><text fill="#000000" font-family="sans-serif" font-size="14" lengthAdjust="spacing" textLength="62" x="36" y="27.8467">Entity01</text><line style="stroke:#181818;stroke-width:0.5;" x1="8" x2="100" y1="39" y2="39"/><line style="stroke:#181818;stroke-width:0.5;" x1="8" x2="100" y1="47" y2="47"/></g><!--MD5=[f4074c741a004a9c45fd03a31f8b9b03]
class Entity02--><g id="elem_Entity02"><rect fill="#F1F1F1" height="48" id="Entity02" rx="2.5" ry="2.5" style="stroke:#181818;stroke-width:0.5;" width="93" x="7.5" y="115"/><ellipse cx="22.5" cy="131" fill="#ADD1B2" rx="11" ry="11" style="stroke:#181818;stroke-width:1.0;"/><path d="M24.8438,126.6719 C23.9063,126.2344 23.3125,126.0938 22.4375,126.0938 C19.8125,126.0938 17.8125,128.1719 17.8125,130.8906 L17.8125,132.0156 C17.8125,134.5938 19.9219,136.4844 22.8125,136.4844 C24.0313,136.4844 25.1875,136.1875 25.9375,135.6406 C26.5156,135.2344 26.8438,134.7813 26.8438,134.3906 C26.8438,133.9375 26.4531,133.5469 25.9844,133.5469 C25.7656,133.5469 25.5625,133.625 25.375,133.8125 C24.9219,134.2969 24.9219,134.2969 24.7344,134.3906 C24.3125,134.6563 23.625,134.7813 22.8594,134.7813 C20.8125,134.7813 19.5156,133.6875 19.5156,131.9844 L19.5156,130.8906 C19.5156,129.1094 20.7656,127.7969 22.5,127.7969 C23.0781,127.7969 23.6875,127.9531 24.1563,128.2031 C24.6406,128.4844 24.8125,128.7031 24.9063,129.1094 C24.9688,129.5156 25,129.6406 25.1406,129.7656 C25.2813,129.9063 25.5156,130.0156 25.7344,130.0156 C26,130.0156 26.2656,129.875 26.4375,129.6563 C26.5469,129.5 26.5781,129.3125 26.5781,128.8906 L26.5781,127.4688 C26.5781,127.0313 26.5625,126.9063 26.4688,126.75 C26.3125,126.4844 26.0313,126.3438 25.7344,126.3438 C25.4375,126.3438 25.2344,126.4375 25.0156,126.75 L24.8438,126.6719 Z " fill="#000000"/><text fill="#000000" font-family="sans-serif" font-size="14" lengthAdjust="spacing" textLength="61" x="36.5" y="135.8467">Entity02</text><line style="stroke:#181818;stroke-width:0.5;" x1="8.5" x2="99.5" y1="147" y2="147"/><line style="stroke:#181818;stroke-width:0.5;" x1="8.5" x2="99.5" y1="155" y2="155"/></g><!--MD5=[bc1ecf3a155b5be2b6a42d90148215d2]
class Entity03--><g id="elem_Entity03"><rect fill="#F1F1F1" height="48" id="Entity03" rx="2.5" ry="2.5" style="stroke:#181818;stroke-width:0.5;" width="94" x="136" y="7"/><ellipse cx="151" cy="23" fill="#ADD1B2" rx="11" ry="11" style="stroke:#181818;stroke-width:1.0;"/><path d="M153.3438,18.6719 C152.4063,18.2344 151.8125,18.0938 150.9375,18.0938 C148.3125,18.0938 146.3125,20.1719 146.3125,22.8906 L146.3125,24.0156 C146.3125,26.5938 148.4219,28.4844 151.3125,28.4844 C152.5313,28.4844 153.6875,28.1875 154.4375,27.6406 C155.0156,27.2344 155.3438,26.7813 155.3438,26.3906 C155.3438,25.9375 154.9531,25.5469 154.4844,25.5469 C154.2656,25.5469 154.0625,25.625 153.875,25.8125 C153.4219,26.2969 153.4219,26.2969 153.2344,26.3906 C152.8125,26.6563 152.125,26.7813 151.3594,26.7813 C149.3125,26.7813 148.0156,25.6875 148.0156,23.9844 L148.0156,22.8906 C148.0156,21.1094 149.2656,19.7969 151,19.7969 C151.5781,19.7969 152.1875,19.9531 152.6563,20.2031 C153.1406,20.4844 153.3125,20.7031 153.4063,21.1094 C153.4688,21.5156 153.5,21.6406 153.6406,21.7656 C153.7813,21.9063 154.0156,22.0156 154.2344,22.0156 C154.5,22.0156 154.7656,21.875 154.9375,21.6563 C155.0469,21.5 155.0781,21.3125 155.0781,20.8906 L155.0781,19.4688 C155.0781,19.0313 155.0625,18.9063 154.9688,18.75 C154.8125,18.4844 154.5313,18.3438 154.2344,18.3438 C153.9375,18.3438 153.7344,18.4375 153.5156,18.75 L153.3438,18.6719 Z " fill="#000000"/><text fill="#000000" font-family="sans-serif" font-size="14" lengthAdjust="spacing" textLength="62" x="165" y="27.8467">Entity03</text><line style="stroke:#181818;stroke-width:0.5;" x1="137" x2="229" y1="39" y2="39"/><line style="stroke:#181818;stroke-width:0.5;" x1="137" x2="229" y1="47" y2="47"/></g><!--MD5=[863ceb9f23d26aa72c2af376b2b9c874]
class Entity14--><g id="elem_Entity14"><rect fill="#F1F1F1" height="48" id="Entity14" rx="2.5" ry="2.5" style="stroke:#181818;stroke-width:0.5;" width="93" x="136.5" y="115"/><ellipse cx="151.5" cy="131" fill="#ADD1B2" rx="11" ry="11" style="stroke:#181818;stroke-width:1.0;"/><path d="M153.8438,126.6719 C152.9063,126.2344 152.3125,126.0938 151.4375,126.0938 C148.8125,126.0938 146.8125,128.1719 146.8125,130.8906 L146.8125,132.0156 C146.8125,134.5938 148.9219,136.4844 151.8125,136.4844 C153.0313,136.4844 154.1875,136.1875 154.9375,135.6406 C155.5156,135.2344 155.8438,134.7813 155.8438,134.3906 C155.8438,133.9375 155.4531,133.5469 154.9844,133.5469 C154.7656,133.5469 154.5625,133.625 154.375,133.8125 C153.9219,134.2969 153.9219,134.2969 153.7344,134.3906 C153.3125,134.6563 152.625,134.7813 151.8594,134.7813 C149.8125,134.7813 148.5156,133.6875 148.5156,131.9844 L148.5156,130.8906 C148.5156,129.1094 149.7656,127.7969 151.5,127.7969 C152.0781,127.7969 152.6875,127.9531 153.1563,128.2031 C153.6406,128.4844 153.8125,128.7031 153.9063,129.1094 C153.9688,129.5156 154,129.6406 154.1406,129.7656 C154.2813,129.9063 154.5156,130.0156 154.7344,130.0156 C155,130.0156 155.2656,129.875 155.4375,129.6563 C155.5469,129.5 155.5781,129.3125 155.5781,128.8906 L155.5781,127.4688 C155.5781,127.0313 155.5625,126.9063 155.4688,126.75 C155.3125,126.4844 155.0313,126.3438 154.7344,126.3438 C154.4375,126.3438 154.2344,126.4375 154.0156,126.75 L153.8438,126.6719 Z " fill="#000000"/><text fill="#000000" font-family="sans-serif" font-size="14" lengthAdjust="spacing" textLength="61" x="165.5" y="135.8467">Entity14</text><line style="stroke:#181818;stroke-width:0.5;" x1="137.5" x2="228.5" y1="147" y2="147"/><line style="stroke:#181818;stroke-width:0.5;" x1="137.5" x2="228.5" y1="155" y2="155"/></g><!--MD5=[df017a8854864e8c7519c60f4c6c8bea]
class Entity05--><g id="elem_Entity05"><rect fill="#F1F1F1" height="48" id="Entity05" rx="2.5" ry="2.5" style="stroke:#181818;stroke-width:0.5;" width="94" x="265" y="7"/><ellipse cx="280" cy="23" fill="#ADD1B2" rx="11" ry="11" style="stroke:#181818;stroke-width:1.0;"/><path d="M282.3438,18.6719 C281.4063,18.2344 280.8125,18.0938 279.9375,18.0938 C277.3125,18.0938 275.3125,20.1719 275.3125,22.8906 L275.3125,24.0156 C275.3125,26.5938 277.4219,28.4844 280.3125,28.4844 C281.5313,28.4844 282.6875,28.1875 283.4375,27.6406 C284.0156,27.2344 284.3438,26.7813 284.3438,26.3906 C284.3438,25.9375 283.9531,25.5469 283.4844,25.5469 C283.2656,25.5469 283.0625,25.625 282.875,25.8125 C282.4219,26.2969 282.4219,26.2969 282.2344,26.3906 C281.8125,26.6563 281.125,26.7813 280.3594,26.7813 C278.3125,26.7813 277.0156,25.6875 277.0156,23.9844 L277.0156,22.8906 C277.0156,21.1094 278.2656,19.7969 280,19.7969 C280.5781,19.7969 281.1875,19.9531 281.6563,20.2031 C282.1406,20.4844 282.3125,20.7031 282.4063,21.1094 C282.4688,21.5156 282.5,21.6406 282.6406,21.7656 C282.7813,21.9063 283.0156,22.0156 283.2344,22.0156 C283.5,22.0156 283.7656,21.875 283.9375,21.6563 C284.0469,21.5 284.0781,21.3125 284.0781,20.8906 L284.0781,19.4688 C284.0781,19.0313 284.0625,18.9063 283.9688,18.75 C283.8125,18.4844 283.5313,18.3438 283.2344,18.3438 C282.9375,18.3438 282.7344,18.4375 282.5156,18.75 L282.3438,18.6719 Z " fill="#000000"/><text fill="#000000" font-family="sans-serif" font-size="14" lengthAdjust="spacing" textLength="62" x="294" y="27.8467">Entity05</text><line style="stroke:#181818;stroke-width:0.5;" x1="266" x2="358" y1="39" y2="39"/><line style="stroke:#181818;stroke-width:0.5;" x1="266" x2="358" y1="47" y2="47"/></g><!--MD5=[e188ef918634b4e3675ccb46cc0e364c]
class Entity06--><g id="elem_Entity06"><rect fill="#F1F1F1" height="48" id="Entity06" rx="2.5" ry="2.5" style="stroke:#181818;stroke-width:0.5;" width="94" x="265" y="115"/><ellipse cx="280" cy="131" fill="#ADD1B2" rx="11" ry="11" style="stroke:#181818;stroke-width:1.0;"/><path d="M282.3438,126.6719 C281.4063,126.2344 280.8125,126.0938 279.9375,126.0938 C277.3125,126.0938 275.3125,128.1719 275.3125,130.8906 L275.3125,132.0156 C275.3125,134.5938 277.4219,136.4844 280.3125,136.4844 C281.5313,136.4844 282.6875,136.1875 283.4375,135.6406 C284.0156,135.2344 284.3438,134.7813 284.3438,134.3906 C284.3438,133.9375 283.9531,133.5469 283.4844,133.5469 C283.2656,133.5469 283.0625,133.625 282.875,133.8125 C282.4219,134.2969 282.4219,134.2969 282.2344,134.3906 C281.8125,134.6563 281.125,134.7813 280.3594,134.7813 C278.3125,134.7813 277.0156,133.6875 277.0156,131.9844 L277.0156,130.8906 C277.0156,129.1094 278.2656,127.7969 280,127.7969 C280.5781,127.7969 281.1875,127.9531 281.6563,128.2031 C282.1406,128.4844 282.3125,128.7031 282.4063,129.1094 C282.4688,129.5156 282.5,129.6406 282.6406,129.7656 C282.7813,129.9063 283.0156,130.0156 283.2344,130.0156 C283.5,130.0156 283.7656,129.875 283.9375,129.6563 C284.0469,129.5 284.0781,129.3125 284.0781,128.8906 L284.0781,127.4688 C284.0781,127.0313 284.0625,126.9063 283.9688,126.75 C283.8125,126.4844 283.5313,126.3438 283.2344,126.3438 C282.9375,126.3438 282.7344,126.4375 282.5156,126.75 L282.3438,126.6719 Z " fill="#000000"/><text fill="#000000" font-family="sans-serif" font-size="14" lengthAdjust="spacing" textLength="62" x="294" y="135.8467">Entity06</text><line style="stroke:#181818;stroke-width:0.5;" x1="266" x2="358" y1="147" y2="147"/><line style="stroke:#181818;stroke-width:0.5;" x1="266" x2="358" y1="155" y2="155"/></g><!--MD5=[0811b4726bb2e806a3e81ecfdf10c6b1]
class Entity07--><g id="elem_Entity07"><rect fill="#F1F1F1" height="48" id="Entity07" rx="2.5" ry="2.5" style="stroke:#181818;stroke-width:0.5;" width="94" x="394" y="7"/><ellipse cx="409" cy="23" fill="#ADD1B2" rx="11" ry="11" style="stroke:#181818;stroke-width:1.0;"/><path d="M411.3438,18.6719 C410.4063,18.2344 409.8125,18.0938 408.9375,18.0938 C406.3125,18.0938 404.3125,20.1719 404.3125,22.8906 L404.3125,24.0156 C404.3125,26.5938 406.4219,28.4844 409.3125,28.4844 C410.5313,28.4844 411.6875,28.1875 412.4375,27.6406 C413.0156,27.2344 413.3438,26.7813 413.3438,26.3906 C413.3438,25.9375 412.9531,25.5469 412.4844,25.5469 C412.2656,25.5469 412.0625,25.625 411.875,25.8125 C411.4219,26.2969 411.4219,26.2969 411.2344,26.3906 C410.8125,26.6563 410.125,26.7813 409.3594,26.7813 C407.3125,26.7813 406.0156,25.6875 406.0156,23.9844 L406.0156,22.8906 C406.0156,21.1094 407.2656,19.7969 409,19.7969 C409.5781,19.7969 410.1875,19.9531 410.6563,20.2031 C411.1406,20.4844 411.3125,20.7031 411.4063,21.1094 C411.4688,21.5156 411.5,21.6406 411.6406,21.7656 C411.7813,21.9063 412.0156,22.0156 412.2344,22.0156 C412.5,22.0156 412.7656,21.875 412.9375,21.6563 C413.0469,21.5 413.0781,21.3125 413.0781,20.8906 L413.0781,19.4688 C413.0781,19.0313 413.0625,18.9063 412.9688,18.75 C412.8125,18.4844 412.5313,18.3438 412.2344,18.3438 C411.9375,18.3438 411.7344,18.4375 411.5156,18.75 L411.3438,18.6719 Z " fill="#000000"/><text fill="#000000" font-family="sans-serif" font-size="14" lengthAdjust="spacing" textLength="62" x="423" y="27.8467">Entity07</text><line style="stroke:#181818;stroke-width:0.5;" x1="395" x2="487" y1="39" y2="39"/><line style="stroke:#181818;stroke-width:0.5;" x1="395" x2="487" y1="47" y2="47"/></g><!--MD5=[3fd620950689635118bd2c0f9c8aca53]
class Entity10--><g id="elem_Entity10"><rect fill="#F1F1F1" height="48" id="Entity10" rx="2.5" ry="2.5" style="stroke:#181818;stroke-width:0.5;" width="94" x="394" y="115"/><ellipse cx="409" cy="131" fill="#ADD1B2" rx="11" ry="11" style="stroke:#181818;stroke-width:1.0;"/><path d="M411.3438,126.6719 C410.4063,126.2344 409.8125,126.0938 408.9375,126.0938 C406.3125,126.0938 404.3125,128.1719 404.3125,130.8906 L404.3125,132.0156 C404.3125,134.5938 406.4219,136.4844 409.3125,136.4844 C410.5313,136.4844 411.6875,136.1875 412.4375,135.6406 C413.0156,135.2344 413.3438,134.7813 413.3438,134.3906 C413.3438,133.9375 412.9531,133.5469 412.4844,133.5469 C412.2656,133.5469 412.0625,133.625 411.875,133.8125 C411.4219,134.2969 411.4219,134.2969 411.2344,134.3906 C410.8125,134.6563 410.125,134.7813 409.3594,134.7813 C407.3125,134.7813 406.0156,133.6875 406.0156,131.9844 L406.0156,130.8906 C406.0156,129.1094 407.2656,127.7969 409,127.7969 C409.5781,127.7969 410.1875,127.9531 410.6563,128.2031 C411.1406,128.4844 411.3125,128.7031 411.4063,129.1094 C411.4688,129.5156 411.5,129.6406 411.6406,129.7656 C411.7813,129.9063 412.0156,130.0156 412.2344,130.0156 C412.5,130.0156 412.7656,129.875 412.9375,129.6563 C413.0469,129.5 413.0781,129.3125 413.0781,128.8906 L413.0781,127.4688 C413.0781,127.0313 413.0625,126.9063 412.9688,126.75 C412.8125,126.4844 412.5313,126.3438 412.2344,126.3438 C411.9375,126.3438 411.7344,126.4375 411.5156,126.75 L411.3438,126.6719 Z " fill="#000000"/><text fill="#000000" font-family="sans-serif" font-size="14" lengthAdjust="spacing" textLength="62" x="423" y="135.8467">Entity10</text><line style="stroke:#181818;stroke-width:0.5;" x1="395" x2="487" y1="147" y2="147"/><line style="stroke:#181818;stroke-width:0.5;" x1="395" x2="487" y1="155" y2="155"/></g><!--MD5=[aa65acfa580fda55ed56c41e76710f9e]
link Entity01 to Entity02--><g id="link_Entity01_Entity02"><path codeLine="1" d="M54,63.2585 C54,76.8932 54,92.8501 54,106.5107 " fill="none" id="Entity01-Entity02" style="stroke:#181818;stroke-width:1.0;stroke-dasharray:7.0,7.0;"/><line style="stroke:#181818;stroke-width:1.0;" x1="58" x2="50" y1="110.6784" y2="110.6784"/><line style="stroke:#181818;stroke-width:1.0;" x1="58" x2="50" y1="107.6784" y2="107.6784"/><line style="stroke:#181818;stroke-width:1.0;" x1="54" x2="54" y1="106.6784" y2="114.6784"/><line style="stroke:#181818;stroke-width:1.0;" x1="54" x2="48" y1="63" y2="55"/><line style="stroke:#181818;stroke-width:1.0;" x1="54" x2="60" y1="63" y2="55"/><line style="stroke:#181818;stroke-width:1.0;" x1="54" x2="54" y1="63" y2="55"/><line style="stroke:#181818;stroke-width:1.0;" x1="50" x2="58" y1="65" y2="65"/></g><!--MD5=[bf05d39949aad71fc084eff0d054f2ee]
link Entity03 to Entity14--><g id="link_Entity03_Entity14"><path codeLine="2" d="M183,63.2585 C183,76.8932 183,92.8501 183,106.5107 " fill="none" id="Entity03-Entity14" style="stroke:#181818;stroke-width:1.0;stroke-dasharray:7.0,7.0;"/><line style="stroke:#181818;stroke-width:1.0;" x1="183" x2="183" y1="103.6784" y2="114.6784"/><ellipse cx="183" cy="103.6784" fill="none" rx="4" ry="4" style="stroke:#181818;stroke-width:1.0;"/><line style="stroke:#181818;stroke-width:1.0;" x1="187" x2="179" y1="110.6784" y2="110.6784"/><line style="stroke:#181818;stroke-width:1.0;" x1="183" x2="177" y1="63" y2="55"/><line style="stroke:#181818;stroke-width:1.0;" x1="183" x2="189" y1="63" y2="55"/><line style="stroke:#181818;stroke-width:1.0;" x1="183" x2="183" y1="63" y2="55"/><ellipse cx="183" cy="69" fill="none" rx="4" ry="4" style="stroke:#181818;stroke-width:1.0;"/></g><!--MD5=[3e1350d0fdac45c01a0825d9e99fb4be]
link Entity05 to Entity06--><g id="link_Entity05_Entity06"><path codeLine="3" d="M312,63.2585 C312,76.8932 312,92.8501 312,106.5107 " fill="none" id="Entity05-Entity06" style="stroke:#181818;stroke-width:1.0;"/><line style="stroke:#181818;stroke-width:1.0;" x1="312" x2="318" y1="106.6784" y2="114.6784"/><line style="stroke:#181818;stroke-width:1.0;" x1="312" x2="306" y1="106.6784" y2="114.6784"/><line style="stroke:#181818;stroke-width:1.0;" x1="312" x2="312" y1="106.6784" y2="114.6784"/><ellipse cx="312" cy="100.6784" fill="none" rx="4" ry="4" style="stroke:#181818;stroke-width:1.0;"/><line style="stroke:#181818;stroke-width:1.0;" x1="308" x2="316" y1="59" y2="59"/><line style="stroke:#181818;stroke-width:1.0;" x1="308" x2="316" y1="62" y2="62"/><line style="stroke:#181818;stroke-width:1.0;" x1="312" x2="312" y1="63" y2="55"/></g><!--MD5=[0f03a98ce8ccdd656db5da6aaf08e364]
link Entity07 to Entity10--><g id="link_Entity07_Entity10"><path codeLine="4" d="M441,63.2585 C441,76.8932 441,92.8501 441,106.5107 " fill="none" id="Entity07-Entity10" style="stroke:#181818;stroke-width:1.0;"/><line style="stroke:#181818;stroke-width:1.0;" x1="445" x2="437" y1="110.6784" y2="110.6784"/><line style="stroke:#181818;stroke-width:1.0;" x1="445" x2="437" y1="107.6784" y2="107.6784"/><line style="stroke:#181818;stroke-width:1.0;" x1="441" x2="441" y1="106.6784" y2="114.6784"/><line style="stroke:#181818;stroke-width:1.0;" x1="441" x2="441" y1="66" y2="55"/><ellipse cx="441" cy="66" fill="none" rx="4" ry="4" style="stroke:#181818;stroke-width:1.0;"/><line style="stroke:#181818;stroke-width:1.0;" x1="437" x2="445" y1="59" y2="59"/></g><!--MD5=[c2e7740309457c4b2bcff72f51b0947c]
@startuml
Entity01 }|..|| Entity02
Entity03 }o..o| Entity14
Entity05 ||- -o{ Entity06
Entity07 |o- -|| Entity10
@enduml

PlantUML version 1.2022.4beta2(Unknown compile time)
(GPL source distribution)
Java Runtime: Java(TM) SE Runtime Environment
JVM: Java HotSpot(TM) 64-Bit Server VM
Default Encoding: UTF-8
Language: en
Country: US
--></g></svg>